<svg xmlns="http://www.w3.org/2000/svg" width="64" height="64" viewBox="0 0 64 64" fill="none">
  <circle cx="32" cy="32" r="30" fill="#4F46E5" />
  <path d="M32 16C26.4772 16 22 20.4772 22 26V34.2676C22 34.7366 21.8707 35.1965 21.6258 35.5983L19.7 38.5C19.2735 39.1392 19.5584 40 20.3225 40H43.6775C44.4416 40 44.7265 39.1392 44.3 38.5L42.3742 35.5983C42.1293 35.1965 42 34.7366 42 34.2676V26C42 20.4772 37.5228 16 32 16Z" fill="white" />
  <path d="M32 48C34.2091 48 36 46.2091 36 44H28C28 46.2091 29.7909 48 32 48Z" fill="white" />
</svg> 